<?xml version="1.0" encoding="utf-8"?>
<!-- Generator: Adobe Illustrator 27.5.0, SVG Export Plug-In . SVG Version: 6.00 Build 0)  -->
<svg version="1.1" xmlns="http://www.w3.org/2000/svg" xmlns:xlink="http://www.w3.org/1999/xlink" x="0px" y="0px"
	 viewBox="0 0 750 500" style="enable-background:new 0 0 750 500;" xml:space="preserve">
<g id="BACKGROUND">
	<rect style="fill:#FAFAFA;" width="750" height="500"/>
</g>
<g id="OBJECTS">
	<g>
		<defs>
			<rect id="SVGID_1_" width="750" height="500"/>
		</defs>
		<clipPath id="SVGID_00000148641528871573555900000008494261659454820757_">
			<use xlink:href="#SVGID_1_"  style="overflow:visible;"/>
		</clipPath>
		<g style="opacity:0.5;clip-path:url(#SVGID_00000148641528871573555900000008494261659454820757_);">
			<rect x="-21.779" y="-51.847" style="fill:none;stroke:#3860AF;stroke-miterlimit:10;" width="88.367" height="88.367"/>
			<rect x="-14.483" y="-46.24" style="fill:none;stroke:#3860AF;stroke-miterlimit:10;" width="88.367" height="88.367"/>
			<rect x="-7.187" y="-40.632" style="fill:none;stroke:#3860AF;stroke-miterlimit:10;" width="88.367" height="88.367"/>
			<rect x="0.11" y="-35.025" style="fill:none;stroke:#3860AF;stroke-miterlimit:10;" width="88.367" height="88.367"/>
			<rect x="7.406" y="-29.418" style="fill:none;stroke:#3860AF;stroke-miterlimit:10;" width="88.367" height="88.367"/>
			<rect x="14.703" y="-23.81" style="fill:none;stroke:#3860AF;stroke-miterlimit:10;" width="88.367" height="88.367"/>
			<rect x="21.999" y="-18.203" style="fill:none;stroke:#3860AF;stroke-miterlimit:10;" width="88.367" height="88.367"/>
			<rect x="29.296" y="-12.596" style="fill:none;stroke:#3860AF;stroke-miterlimit:10;" width="88.367" height="88.367"/>
			<rect x="36.592" y="-6.989" style="fill:none;stroke:#3860AF;stroke-miterlimit:10;" width="88.367" height="88.367"/>
			<rect x="43.889" y="-1.381" style="fill:none;stroke:#3860AF;stroke-miterlimit:10;" width="88.367" height="88.367"/>
			<rect x="51.185" y="4.226" style="fill:none;stroke:#3860AF;stroke-miterlimit:10;" width="88.367" height="88.367"/>
			<rect x="58.481" y="9.833" style="fill:none;stroke:#3860AF;stroke-miterlimit:10;" width="88.367" height="88.367"/>
			<rect x="65.778" y="15.441" style="fill:none;stroke:#3860AF;stroke-miterlimit:10;" width="88.367" height="88.367"/>
			<rect x="73.074" y="21.048" style="fill:none;stroke:#3860AF;stroke-miterlimit:10;" width="88.367" height="88.367"/>
			<rect x="80.371" y="26.655" style="fill:none;stroke:#3860AF;stroke-miterlimit:10;" width="88.367" height="88.367"/>
			<rect x="87.667" y="32.263" style="fill:none;stroke:#3860AF;stroke-miterlimit:10;" width="88.367" height="88.367"/>
			<rect x="94.964" y="37.87" style="fill:none;stroke:#3860AF;stroke-miterlimit:10;" width="88.367" height="88.367"/>
			<rect x="102.26" y="43.477" style="fill:none;stroke:#3860AF;stroke-miterlimit:10;" width="88.367" height="88.367"/>
			<rect x="109.557" y="49.084" style="fill:none;stroke:#3860AF;stroke-miterlimit:10;" width="88.367" height="88.367"/>
			<rect x="116.853" y="54.692" style="fill:none;stroke:#3860AF;stroke-miterlimit:10;" width="88.367" height="88.367"/>
			<rect x="124.149" y="60.299" style="fill:none;stroke:#3860AF;stroke-miterlimit:10;" width="88.367" height="88.367"/>
			<rect x="131.446" y="65.906" style="fill:none;stroke:#3860AF;stroke-miterlimit:10;" width="88.367" height="88.367"/>
		</g>
		<g style="clip-path:url(#SVGID_00000148641528871573555900000008494261659454820757_);">
			
				<ellipse transform="matrix(0.7071 -0.7071 0.7071 0.7071 -212.1882 598.6031)" style="fill:none;stroke:#C6C6D0;stroke-width:0.8974;stroke-miterlimit:10;" cx="616.484" cy="555.435" rx="45.562" ry="45.562"/>
			
				<ellipse transform="matrix(0.9457 -0.3251 0.3251 0.9457 -144.1793 227.5793)" style="fill:none;stroke:#C6C6D0;stroke-width:0.8974;stroke-miterlimit:10;" cx="608.964" cy="545.261" rx="45.562" ry="45.562"/>
			
				<ellipse transform="matrix(0.0063 -1 1 0.0063 62.418 1132.6145)" style="fill:none;stroke:#C6C6D0;stroke-width:0.8974;stroke-miterlimit:10;" cx="601.122" cy="534.9" rx="45.562" ry="45.562"/>
			
				<ellipse transform="matrix(0.7071 -0.7071 0.7071 0.7071 -197.7493 572.6947)" style="fill:none;stroke:#C6C6D0;stroke-width:0.8974;stroke-miterlimit:10;" cx="592.429" cy="525.052" rx="45.562" ry="45.562"/>
			
				<ellipse transform="matrix(0.0063 -1 1 0.0063 63.2547 1095.9154)" style="fill:none;stroke:#C6C6D0;stroke-width:0.8974;stroke-miterlimit:10;" cx="583.074" cy="516.129" rx="45.562" ry="45.562"/>
			
				<ellipse transform="matrix(0.0063 -1 1 0.0063 61.3572 1078.0256)" style="fill:none;stroke:#C6C6D0;stroke-width:0.8974;stroke-miterlimit:10;" cx="573.124" cy="508.139" rx="45.562" ry="45.562"/>
			
				<ellipse transform="matrix(0.7071 -0.7071 0.7071 0.7071 -189.5294 544.6145)" style="fill:none;stroke:#C6C6D0;stroke-width:0.8974;stroke-miterlimit:10;" cx="562.643" cy="501.09" rx="45.562" ry="45.562"/>
			<circle style="fill:none;stroke:#C6C6D0;stroke-width:0.8974;stroke-miterlimit:10;" cx="551.698" cy="494.989" r="45.562"/>
			
				<ellipse transform="matrix(0.0084 -1 1 0.0084 45.9974 1026.0745)" style="fill:none;stroke:#C6C6D0;stroke-width:0.8974;stroke-miterlimit:10;" cx="540.354" cy="489.845" rx="45.562" ry="45.562"/>
			
				<ellipse transform="matrix(0.984 -0.178 0.178 0.984 -78.0012 101.8529)" style="fill:none;stroke:#C6C6D0;stroke-width:0.8974;stroke-miterlimit:10;" cx="528.676" cy="485.666" rx="45.562" ry="45.563"/>
			
				<ellipse transform="matrix(0.8252 -0.5649 0.5649 0.8252 -182.1915 376.2282)" style="fill:none;stroke:#C6C6D0;stroke-width:0.8974;stroke-miterlimit:10;" cx="516.731" cy="482.459" rx="45.562" ry="45.562"/>
			
				<ellipse transform="matrix(0.9457 -0.3251 0.3251 0.9457 -128.7094 190.1151)" style="fill:none;stroke:#C6C6D0;stroke-width:0.8974;stroke-miterlimit:10;" cx="504.584" cy="480.233" rx="45.562" ry="45.562"/>
			
				<ellipse transform="matrix(0.9457 -0.3251 0.3251 0.9457 -128.9743 186.0547)" style="fill:none;stroke:#C6C6D0;stroke-width:0.8974;stroke-miterlimit:10;" cx="492.3" cy="478.996" rx="45.562" ry="45.562"/>
			
				<ellipse transform="matrix(0.9457 -0.3251 0.3251 0.9457 -129.5671 182.0253)" style="fill:none;stroke:#C6C6D0;stroke-width:0.8974;stroke-miterlimit:10;" cx="479.945" cy="478.755" rx="45.562" ry="45.562"/>
			
				<ellipse transform="matrix(0.0084 -1 1 0.0084 -15.8357 943.0693)" style="fill:none;stroke:#C6C6D0;stroke-width:0.8974;stroke-miterlimit:10;" cx="467.585" cy="479.519" rx="45.562" ry="45.562"/>
			
				<ellipse transform="matrix(0.8991 -0.4378 0.4378 0.8991 -164.7524 247.879)" style="fill:none;stroke:#C6C6D0;stroke-width:0.8974;stroke-miterlimit:10;" cx="455.286" cy="481.296" rx="45.562" ry="45.563"/>
			
				<ellipse transform="matrix(0.7071 -0.7071 0.7071 0.7071 -212.5206 455.1149)" style="fill:none;stroke:#C6C6D0;stroke-width:0.8974;stroke-miterlimit:10;" cx="443.112" cy="484.093" rx="45.562" ry="45.562"/>
			
				<ellipse transform="matrix(0.7071 -0.7071 0.7071 0.7071 -218.7351 447.7625)" style="fill:none;stroke:#C6C6D0;stroke-width:0.8974;stroke-miterlimit:10;" cx="431.13" cy="487.918" rx="45.562" ry="45.562"/>
			
				<ellipse transform="matrix(0.7071 -0.7071 0.7071 0.7071 -225.6072 440.8956)" style="fill:none;stroke:#C6C6D0;stroke-width:0.8974;stroke-miterlimit:10;" cx="419.404" cy="492.78" rx="45.562" ry="45.562"/>
			
				<ellipse transform="matrix(0.0063 -1 1 0.0063 -93.2639 903.5145)" style="fill:none;stroke:#C6C6D0;stroke-width:0.8974;stroke-miterlimit:10;" cx="408.002" cy="498.686" rx="45.562" ry="45.562"/>
			
				<ellipse transform="matrix(0.9457 -0.3251 0.3251 0.9457 -142.8143 156.5177)" style="fill:none;stroke:#C6C6D0;stroke-width:0.8974;stroke-miterlimit:10;" cx="396.988" cy="505.645" rx="45.562" ry="45.562"/>
			
				<ellipse transform="matrix(0.0048 -1 1 0.0048 -129.0883 897.6178)" style="fill:none;stroke:#C6C6D0;stroke-width:0.8974;stroke-miterlimit:10;" cx="386.428" cy="513.664" rx="45.562" ry="45.562"/>
		</g>
		<g style="clip-path:url(#SVGID_00000148641528871573555900000008494261659454820757_);">
			
				<ellipse transform="matrix(0.9894 -0.1449 0.1449 0.9894 7.6261 109.2486)" style="fill:none;stroke:#7592DB;stroke-miterlimit:10;" cx="753.898" cy="2.265" rx="45.562" ry="45.562"/>
			
				<ellipse transform="matrix(0.8273 -0.5618 0.5618 0.8273 121.7624 421.9366)" style="fill:none;stroke:#7592DB;stroke-miterlimit:10;" cx="747.104" cy="12.938" rx="45.563" ry="45.562"/>
			
				<ellipse transform="matrix(0.9425 -0.3343 0.3343 0.9425 34.5656 248.8232)" style="fill:none;stroke:#7592DB;stroke-miterlimit:10;" cx="740.253" cy="23.979" rx="45.562" ry="45.562"/>
			
				<ellipse transform="matrix(0.8134 -0.5817 0.5817 0.8134 116.2762 433.7339)" style="fill:none;stroke:#7592DB;stroke-miterlimit:10;" cx="734.187" cy="35.631" rx="45.563" ry="45.562"/>
			
				<ellipse transform="matrix(0.7071 -0.7071 0.7071 0.7071 179.9491 529.5691)" style="fill:none;stroke:#7592DB;stroke-miterlimit:10;" cx="729.221" cy="47.567" rx="45.562" ry="45.562"/>
			
				<ellipse transform="matrix(0.9776 -0.2104 0.2104 0.9776 3.6719 153.9588)" style="fill:none;stroke:#7592DB;stroke-miterlimit:10;" cx="725.34" cy="59.724" rx="45.563" ry="45.562"/>
			
				<ellipse transform="matrix(0.992 -0.1262 0.1262 0.992 -3.3142 91.7657)" style="fill:none;stroke:#7592DB;stroke-miterlimit:10;" cx="722.527" cy="72.037" rx="45.562" ry="45.562"/>
			
				<ellipse transform="matrix(0.7071 -0.7071 0.7071 0.7071 151.3971 534.3921)" style="fill:none;stroke:#7592DB;stroke-miterlimit:10;" cx="720.767" cy="84.444" rx="45.562" ry="45.562"/>
			
				<ellipse transform="matrix(0.7071 -0.7071 0.7071 0.7071 142.3922 537.5221)" style="fill:none;stroke:#7592DB;stroke-miterlimit:10;" cx="720.043" cy="96.878" rx="45.562" ry="45.562"/>
			
				<ellipse transform="matrix(0.9776 -0.2104 0.2104 0.9776 -6.8669 154.0159)" style="fill:none;stroke:#7592DB;stroke-miterlimit:10;" cx="720.339" cy="109.278" rx="45.563" ry="45.562"/>
			
				<ellipse transform="matrix(0.4606 -0.8876 0.8876 0.4606 281.3449 706.1151)" style="fill:none;stroke:#7592DB;stroke-miterlimit:10;" cx="721.638" cy="121.577" rx="45.562" ry="45.562"/>
			
				<ellipse transform="matrix(0.4606 -0.8876 0.8876 0.4606 271.8069 714.6917)" style="fill:none;stroke:#7592DB;stroke-miterlimit:10;" cx="723.926" cy="133.713" rx="45.562" ry="45.562"/>
			
				<ellipse transform="matrix(0.7071 -0.7071 0.7071 0.7071 110.0179 556.8488)" style="fill:none;stroke:#7592DB;stroke-miterlimit:10;" cx="727.185" cy="145.621" rx="45.562" ry="45.562"/>
			
				<ellipse transform="matrix(0.4606 -0.8876 0.8876 0.4606 254.9581 734.0146)" style="fill:none;stroke:#7592DB;stroke-miterlimit:10;" cx="731.4" cy="157.237" rx="45.562" ry="45.562"/>
			
				<ellipse transform="matrix(0.7071 -0.7071 0.7071 0.7071 96.586 570.1737)" style="fill:none;stroke:#7592DB;stroke-miterlimit:10;" cx="736.554" cy="168.497" rx="45.562" ry="45.562"/>
			
				<ellipse transform="matrix(0.8239 -0.5667 0.5667 0.8239 29.1442 452.4658)" style="fill:none;stroke:#7592DB;stroke-miterlimit:10;" cx="742.631" cy="179.337" rx="45.562" ry="45.562"/>
			
				<ellipse transform="matrix(0.1695 -0.9855 0.9855 0.1695 435.619 896.3137)" style="fill:none;stroke:#7592DB;stroke-miterlimit:10;" cx="749.615" cy="189.693" rx="45.562" ry="45.562"/>
			
				<ellipse transform="matrix(0.9701 -0.2427 0.2427 0.9701 -25.7712 189.8403)" style="fill:none;stroke:#7592DB;stroke-miterlimit:10;" cx="757.491" cy="199.5" rx="45.562" ry="45.562"/>
			
				<ellipse transform="matrix(0.9148 -0.4039 0.4039 0.9148 -19.0054 327.3011)" style="fill:none;stroke:#7592DB;stroke-miterlimit:10;" cx="766.241" cy="208.696" rx="45.562" ry="45.562"/>
			
				<ellipse transform="matrix(0.9786 -0.2059 0.2059 0.9786 -28.0978 164.363)" style="fill:none;stroke:#7592DB;stroke-miterlimit:10;" cx="775.85" cy="217.214" rx="45.563" ry="45.562"/>
			
				<ellipse transform="matrix(0.8204 -0.5717 0.5717 0.8204 12.5531 489.9547)" style="fill:none;stroke:#7592DB;stroke-miterlimit:10;" cx="786.302" cy="224.992" rx="45.562" ry="45.562"/>
			
				<ellipse transform="matrix(0.9777 -0.2101 0.2101 0.9777 -30.9341 172.7509)" style="fill:none;stroke:#7592DB;stroke-miterlimit:10;" cx="797.58" cy="231.966" rx="45.563" ry="45.562"/>
		</g>
		<g style="clip-path:url(#SVGID_00000148641528871573555900000008494261659454820757_);">
			<path style="opacity:0.9;fill:#3860AF;" d="M-28.322,170.838c6.493-7.206,13.872-13.816,22.121-19.655
				c36.99-26.186,82.729-30.863,122.363-16.59l42.08-29.789c-58.115-32.66-132.264-31.21-190.29,9.867
				c-13.7,9.699-25.613,20.981-35.672,33.42L-28.322,170.838z"/>
			<path style="fill:#7592DB;" d="M343.104,272.154l-33.707,23.862c0.233,33.743-15.476,67.055-45.106,88.03
				c-48.158,34.092-114.836,22.689-148.928-25.469c-8.809-12.443-14.572-26.123-17.457-40.157l-38.023-21.953
				c-0.101,28.665,8.409,57.635,26.233,82.814c45.527,64.311,134.568,79.538,198.878,34.012
				C331.475,380.388,352.308,324.754,343.104,272.154z"/>
		</g>
		<g style="clip-path:url(#SVGID_00000148641528871573555900000008494261659454820757_);">
			<g>
				<path style="fill:#7592DB;" d="M351.616,69.308c0,0.85-0.689,1.538-1.539,1.538c-0.85,0-1.538-0.689-1.538-1.538
					s0.689-1.538,1.538-1.538C350.927,67.769,351.616,68.458,351.616,69.308z"/>
				<path style="fill:#7592DB;" d="M377.462,69.308c0,0.85-0.689,1.538-1.538,1.538s-1.538-0.689-1.538-1.538
					s0.689-1.538,1.538-1.538S377.462,68.458,377.462,69.308z"/>
				<path style="fill:#7592DB;" d="M403.308,69.308c0,0.85-0.689,1.538-1.539,1.538c-0.85,0-1.538-0.689-1.538-1.538
					s0.689-1.538,1.538-1.538C402.619,67.769,403.308,68.458,403.308,69.308z"/>
				<path style="fill:#7592DB;" d="M429.154,69.308c0,0.85-0.689,1.538-1.538,1.538s-1.539-0.689-1.539-1.538
					s0.689-1.538,1.539-1.538S429.154,68.458,429.154,69.308z"/>
				<path style="fill:#7592DB;" d="M455,69.308c0,0.85-0.689,1.538-1.538,1.538c-0.85,0-1.538-0.689-1.538-1.538
					s0.689-1.538,1.538-1.538C454.311,67.769,455,68.458,455,69.308z"/>
				<path style="fill:#7592DB;" d="M351.616,43.461c0,0.85-0.689,1.539-1.539,1.539c-0.85,0-1.538-0.689-1.538-1.539
					c0-0.85,0.689-1.538,1.538-1.538C350.927,41.923,351.616,42.612,351.616,43.461z"/>
				<path style="fill:#7592DB;" d="M377.462,43.461c0,0.85-0.689,1.539-1.538,1.539s-1.538-0.689-1.538-1.539
					c0-0.85,0.689-1.538,1.538-1.538S377.462,42.612,377.462,43.461z"/>
				<path style="fill:#7592DB;" d="M403.308,43.461c0,0.85-0.689,1.539-1.539,1.539c-0.85,0-1.538-0.689-1.538-1.539
					c0-0.85,0.689-1.538,1.538-1.538C402.619,41.923,403.308,42.612,403.308,43.461z"/>
				<path style="fill:#7592DB;" d="M429.154,43.461c0,0.85-0.689,1.539-1.538,1.539s-1.539-0.689-1.539-1.539
					c0-0.85,0.689-1.538,1.539-1.538S429.154,42.612,429.154,43.461z"/>
				<path style="fill:#7592DB;" d="M455,43.461c0,0.85-0.689,1.539-1.538,1.539c-0.85,0-1.538-0.689-1.538-1.539
					c0-0.85,0.689-1.538,1.538-1.538C454.311,41.923,455,42.612,455,43.461z"/>
				<path style="fill:#7592DB;" d="M351.616,17.615c0,0.85-0.689,1.538-1.539,1.538c-0.85,0-1.538-0.689-1.538-1.538
					c0-0.85,0.689-1.538,1.538-1.538C350.927,16.077,351.616,16.766,351.616,17.615z"/>
				<path style="fill:#7592DB;" d="M377.462,17.615c0,0.85-0.689,1.538-1.538,1.538s-1.538-0.689-1.538-1.538
					c0-0.85,0.689-1.538,1.538-1.538S377.462,16.766,377.462,17.615z"/>
				<path style="fill:#7592DB;" d="M403.308,17.615c0,0.85-0.689,1.538-1.539,1.538c-0.85,0-1.538-0.689-1.538-1.538
					c0-0.85,0.689-1.538,1.538-1.538C402.619,16.077,403.308,16.766,403.308,17.615z"/>
				<path style="fill:#7592DB;" d="M429.154,17.615c0,0.85-0.689,1.538-1.538,1.538s-1.539-0.689-1.539-1.538
					c0-0.85,0.689-1.538,1.539-1.538S429.154,16.766,429.154,17.615z"/>
				<path style="fill:#7592DB;" d="M455,17.615c0,0.85-0.689,1.538-1.538,1.538c-0.85,0-1.538-0.689-1.538-1.538
					c0-0.85,0.689-1.538,1.538-1.538C454.311,16.077,455,16.766,455,17.615z"/>
				<path style="fill:#7592DB;" d="M351.616-8.231c0,0.85-0.689,1.538-1.539,1.538c-0.85,0-1.538-0.689-1.538-1.538
					c0-0.85,0.689-1.538,1.538-1.538C350.927-9.769,351.616-9.08,351.616-8.231z"/>
				<path style="fill:#7592DB;" d="M377.462-8.231c0,0.85-0.689,1.538-1.538,1.538s-1.538-0.689-1.538-1.538
					c0-0.85,0.689-1.538,1.538-1.538S377.462-9.08,377.462-8.231z"/>
				<path style="fill:#7592DB;" d="M403.308-8.231c0,0.85-0.689,1.538-1.539,1.538c-0.85,0-1.538-0.689-1.538-1.538
					c0-0.85,0.689-1.538,1.538-1.538C402.619-9.769,403.308-9.08,403.308-8.231z"/>
				<circle style="fill:#7592DB;" cx="427.616" cy="-8.231" r="1.538"/>
				<path style="fill:#7592DB;" d="M455-8.231c0,0.85-0.689,1.538-1.538,1.538c-0.85,0-1.538-0.689-1.538-1.538
					c0-0.85,0.689-1.538,1.538-1.538C454.311-9.769,455-9.08,455-8.231z"/>
				<path style="fill:#7592DB;" d="M351.616-34.077c0,0.85-0.689,1.538-1.539,1.538c-0.85,0-1.538-0.689-1.538-1.538
					c0-0.85,0.689-1.538,1.538-1.538C350.927-35.615,351.616-34.927,351.616-34.077z"/>
				<path style="fill:#7592DB;" d="M377.462-34.077c0,0.85-0.689,1.538-1.538,1.538s-1.538-0.689-1.538-1.538
					c0-0.85,0.689-1.538,1.538-1.538S377.462-34.927,377.462-34.077z"/>
				<path style="fill:#7592DB;" d="M403.308-34.077c0,0.85-0.689,1.538-1.539,1.538c-0.85,0-1.538-0.689-1.538-1.538
					c0-0.85,0.689-1.538,1.538-1.538C402.619-35.615,403.308-34.927,403.308-34.077z"/>
				<path style="fill:#7592DB;" d="M429.154-34.077c0,0.85-0.689,1.538-1.538,1.538s-1.539-0.689-1.539-1.538
					c0-0.85,0.689-1.538,1.539-1.538S429.154-34.927,429.154-34.077z"/>
				<path style="fill:#7592DB;" d="M455-34.077c0,0.85-0.689,1.538-1.538,1.538c-0.85,0-1.538-0.689-1.538-1.538
					c0-0.85,0.689-1.538,1.538-1.538C454.311-35.615,455-34.927,455-34.077z"/>
			</g>
		</g>
		
			<path style="clip-path:url(#SVGID_00000148641528871573555900000008494261659454820757_);fill:none;stroke:#C6C6D0;stroke-width:10.7693;stroke-miterlimit:10;" d="
			M223.192,252.25c10.044,0.353,20.134,3.253,29.288,8.928c28.004,17.365,36.629,54.144,19.264,82.148
			c-17.365,28.004-54.144,36.629-82.148,19.265c-8.376-5.194-15.019-12.125-19.751-20.038"/>
		
			<path style="clip-path:url(#SVGID_00000148641528871573555900000008494261659454820757_);fill:none;stroke:#7592DB;stroke-width:19;stroke-miterlimit:10;" d="
			M778.605,431.628c-5.273,8.555-12.782,15.893-22.242,21.043c-28.94,15.756-65.174,5.068-80.93-23.872
			c-15.756-28.94-5.068-65.174,23.872-80.93c8.656-4.713,17.965-7.06,27.183-7.26"/>
		
			<rect x="-111.239" y="198.079" style="clip-path:url(#SVGID_00000148641528871573555900000008494261659454820757_);fill:#C6C6D0;" width="349.769" height="6.613"/>
		
			<rect x="-21.862" y="312.282" style="clip-path:url(#SVGID_00000148641528871573555900000008494261659454820757_);fill:#C6C6D0;" width="200.554" height="1.592"/>
		
			<rect x="200.445" y="191.048" style="opacity:0.5;clip-path:url(#SVGID_00000148641528871573555900000008494261659454820757_);fill:#7592DB;" width="112.422" height="1.592"/>
		
			<circle style="clip-path:url(#SVGID_00000148641528871573555900000008494261659454820757_);fill:#7592DB;" cx="238.531" cy="33.182" r="12.125"/>
		
			<circle style="clip-path:url(#SVGID_00000148641528871573555900000008494261659454820757_);fill:#3860AF;" cx="651.46" cy="491.951" r="23.411"/>
		<path style="opacity:0.5;clip-path:url(#SVGID_00000148641528871573555900000008494261659454820757_);fill:#7592DB;" d="
			M270.692,62.231c0,1.644-1.333,2.977-2.977,2.977c-1.644,0-2.977-1.333-2.977-2.977c0-1.644,1.333-2.977,2.977-2.977
			C269.36,59.254,270.692,60.587,270.692,62.231z"/>
		<path style="opacity:0.5;clip-path:url(#SVGID_00000148641528871573555900000008494261659454820757_);fill:#7592DB;" d="
			M305.555,261.094c2.165,2.165,2.165,5.675,0,7.841c-2.165,2.165-5.675,2.165-7.84,0c-2.165-2.165-2.165-5.675,0-7.841
			S303.39,258.929,305.555,261.094z"/>
		
			<line style="clip-path:url(#SVGID_00000148641528871573555900000008494261659454820757_);fill:none;stroke:#7592DB;stroke-miterlimit:10;" x1="179.636" y1="459.461" x2="368.846" y2="459.461"/>
		
			<line style="clip-path:url(#SVGID_00000148641528871573555900000008494261659454820757_);fill:none;stroke:#7592DB;stroke-miterlimit:10;" x1="334.692" y1="811.654" x2="334.692" y2="405.923"/>
		<g style="clip-path:url(#SVGID_00000148641528871573555900000008494261659454820757_);">
			<g>
				<g>
					<line style="fill:none;stroke:#C6C6D0;stroke-miterlimit:10;" x1="770.672" y1="33.182" x2="581.462" y2="33.182"/>
				</g>
				<line style="fill:none;stroke:#C6C6D0;stroke-miterlimit:10;" x1="615.615" y1="-319.01" x2="615.615" y2="86.721"/>
			</g>
		</g>
		<g style="clip-path:url(#SVGID_00000148641528871573555900000008494261659454820757_);">
			<g>
				
					<line style="fill:none;stroke:#C6C6D0;stroke-width:0.5625;stroke-miterlimit:10;" x1="280.71" y1="12.942" x2="280.71" y2="17.615"/>
				
					<line style="fill:none;stroke:#C6C6D0;stroke-width:0.5625;stroke-miterlimit:10;" x1="283.046" y1="15.279" x2="278.373" y2="15.279"/>
			</g>
			<g>
				
					<line style="fill:none;stroke:#C6C6D0;stroke-width:0.5625;stroke-miterlimit:10;" x1="280.71" y1="30.942" x2="280.71" y2="35.615"/>
				
					<line style="fill:none;stroke:#C6C6D0;stroke-width:0.5625;stroke-miterlimit:10;" x1="283.046" y1="33.279" x2="278.373" y2="33.279"/>
			</g>
			<g>
				
					<line style="fill:none;stroke:#C6C6D0;stroke-width:0.5625;stroke-miterlimit:10;" x1="280.71" y1="48.942" x2="280.71" y2="53.615"/>
				
					<line style="fill:none;stroke:#C6C6D0;stroke-width:0.5625;stroke-miterlimit:10;" x1="283.046" y1="51.279" x2="278.373" y2="51.279"/>
			</g>
			<g>
				
					<line style="fill:none;stroke:#C6C6D0;stroke-width:0.5625;stroke-miterlimit:10;" x1="280.71" y1="66.942" x2="280.71" y2="71.615"/>
				
					<line style="fill:none;stroke:#C6C6D0;stroke-width:0.5625;stroke-miterlimit:10;" x1="283.046" y1="69.279" x2="278.373" y2="69.279"/>
			</g>
			<g>
				
					<line style="fill:none;stroke:#C6C6D0;stroke-width:0.5625;stroke-miterlimit:10;" x1="280.71" y1="84.942" x2="280.71" y2="89.615"/>
				
					<line style="fill:none;stroke:#C6C6D0;stroke-width:0.5625;stroke-miterlimit:10;" x1="283.046" y1="87.279" x2="278.373" y2="87.279"/>
			</g>
			<g>
				
					<line style="fill:none;stroke:#C6C6D0;stroke-width:0.5625;stroke-miterlimit:10;" x1="280.71" y1="102.942" x2="280.71" y2="107.615"/>
				
					<line style="fill:none;stroke:#C6C6D0;stroke-width:0.5625;stroke-miterlimit:10;" x1="283.046" y1="105.279" x2="278.373" y2="105.279"/>
			</g>
		</g>
		<g style="clip-path:url(#SVGID_00000148641528871573555900000008494261659454820757_);">
			<g>
				
					<line style="fill:none;stroke:#C6C6D0;stroke-width:1.1226;stroke-miterlimit:10;" x1="46.728" y1="478.722" x2="56.055" y2="478.722"/>
				
					<line style="fill:none;stroke:#C6C6D0;stroke-width:1.1226;stroke-miterlimit:10;" x1="51.391" y1="474.058" x2="51.391" y2="483.385"/>
			</g>
			<g>
				
					<line style="fill:none;stroke:#C6C6D0;stroke-width:1.1226;stroke-miterlimit:10;" x1="82.652" y1="478.722" x2="91.979" y2="478.722"/>
				
					<line style="fill:none;stroke:#C6C6D0;stroke-width:1.1226;stroke-miterlimit:10;" x1="87.315" y1="474.058" x2="87.315" y2="483.385"/>
			</g>
			<g>
				
					<line style="fill:none;stroke:#C6C6D0;stroke-width:1.1226;stroke-miterlimit:10;" x1="118.576" y1="478.722" x2="127.903" y2="478.722"/>
				
					<line style="fill:none;stroke:#C6C6D0;stroke-width:1.1226;stroke-miterlimit:10;" x1="123.24" y1="474.058" x2="123.24" y2="483.385"/>
			</g>
			<g>
				
					<line style="fill:none;stroke:#C6C6D0;stroke-width:1.1226;stroke-miterlimit:10;" x1="154.501" y1="478.722" x2="163.827" y2="478.722"/>
				
					<line style="fill:none;stroke:#C6C6D0;stroke-width:1.1226;stroke-miterlimit:10;" x1="159.164" y1="474.058" x2="159.164" y2="483.385"/>
			</g>
			<g>
				
					<line style="fill:none;stroke:#C6C6D0;stroke-width:1.1226;stroke-miterlimit:10;" x1="190.425" y1="478.722" x2="199.751" y2="478.722"/>
				
					<line style="fill:none;stroke:#C6C6D0;stroke-width:1.1226;stroke-miterlimit:10;" x1="195.088" y1="474.058" x2="195.088" y2="483.385"/>
			</g>
			<g>
				
					<line style="fill:none;stroke:#C6C6D0;stroke-width:1.1226;stroke-miterlimit:10;" x1="226.349" y1="478.722" x2="235.676" y2="478.722"/>
				
					<line style="fill:none;stroke:#C6C6D0;stroke-width:1.1226;stroke-miterlimit:10;" x1="231.012" y1="474.058" x2="231.012" y2="483.385"/>
			</g>
		</g>
		<g style="clip-path:url(#SVGID_00000148641528871573555900000008494261659454820757_);">
			<g>
				
					<line style="fill:none;stroke:#C6C6D0;stroke-width:0.5625;stroke-miterlimit:10;" x1="348.091" y1="419.279" x2="352.764" y2="419.279"/>
				
					<line style="fill:none;stroke:#C6C6D0;stroke-width:0.5625;stroke-miterlimit:10;" x1="350.428" y1="416.942" x2="350.428" y2="421.615"/>
			</g>
			<g>
				
					<line style="fill:none;stroke:#C6C6D0;stroke-width:0.5625;stroke-miterlimit:10;" x1="366.091" y1="419.279" x2="370.764" y2="419.279"/>
				
					<line style="fill:none;stroke:#C6C6D0;stroke-width:0.5625;stroke-miterlimit:10;" x1="368.428" y1="416.942" x2="368.428" y2="421.615"/>
			</g>
			<g>
				
					<line style="fill:none;stroke:#C6C6D0;stroke-width:0.5625;stroke-miterlimit:10;" x1="384.091" y1="419.279" x2="388.764" y2="419.279"/>
				
					<line style="fill:none;stroke:#C6C6D0;stroke-width:0.5625;stroke-miterlimit:10;" x1="386.428" y1="416.942" x2="386.428" y2="421.615"/>
			</g>
			<g>
				
					<line style="fill:none;stroke:#C6C6D0;stroke-width:0.5625;stroke-miterlimit:10;" x1="402.091" y1="419.279" x2="406.764" y2="419.279"/>
				
					<line style="fill:none;stroke:#C6C6D0;stroke-width:0.5625;stroke-miterlimit:10;" x1="404.428" y1="416.942" x2="404.428" y2="421.615"/>
			</g>
			<g>
				
					<line style="fill:none;stroke:#C6C6D0;stroke-width:0.5625;stroke-miterlimit:10;" x1="420.091" y1="419.279" x2="424.764" y2="419.279"/>
				
					<line style="fill:none;stroke:#C6C6D0;stroke-width:0.5625;stroke-miterlimit:10;" x1="422.428" y1="416.942" x2="422.428" y2="421.615"/>
			</g>
			<g>
				
					<line style="fill:none;stroke:#C6C6D0;stroke-width:0.5625;stroke-miterlimit:10;" x1="438.091" y1="419.279" x2="442.764" y2="419.279"/>
				
					<line style="fill:none;stroke:#C6C6D0;stroke-width:0.5625;stroke-miterlimit:10;" x1="440.428" y1="416.942" x2="440.428" y2="421.615"/>
			</g>
		</g>
		
			<circle style="opacity:0.5;clip-path:url(#SVGID_00000148641528871573555900000008494261659454820757_);fill:#C6C6D0;" cx="679.249" cy="342.832" r="16.028"/>
		
			<circle style="clip-path:url(#SVGID_00000148641528871573555900000008494261659454820757_);fill:#3860AF;" cx="629.615" cy="400.277" r="2.823"/>
		
			<ellipse transform="matrix(0.1602 -0.9871 0.9871 0.1602 -302.2235 396.1414)" style="opacity:0.5;clip-path:url(#SVGID_00000148641528871573555900000008494261659454820757_);fill:#3860AF;" cx="81.692" cy="375.681" rx="24.969" ry="24.969"/>
		
			<line style="clip-path:url(#SVGID_00000148641528871573555900000008494261659454820757_);fill:none;stroke:#7592DB;stroke-miterlimit:10;" x1="626.792" y1="438.163" x2="791.923" y2="438.163"/>
		<polygon style="clip-path:url(#SVGID_00000148641528871573555900000008494261659454820757_);fill:#C6C6D0;" points="
			122.228,153.649 122.228,182.498 183.308,182.498 		"/>
		<polygon style="clip-path:url(#SVGID_00000148641528871573555900000008494261659454820757_);fill:#C6C6D0;" points="
			668.857,266.969 693.143,266.969 681,215.769 		"/>
		
			<line style="clip-path:url(#SVGID_00000148641528871573555900000008494261659454820757_);fill:none;stroke:#C6C6D0;stroke-miterlimit:10;" x1="42.385" y1="184.077" x2="42.385" y2="329.308"/>
	</g>
</g>
</svg>
